<?xml version="1.0" encoding="UTF-8" standalone="no"?><!-- Generator: Gravit.io --><svg xmlns="http://www.w3.org/2000/svg" xmlns:xlink="http://www.w3.org/1999/xlink" style="isolation:isolate" viewBox="754.107 244 316 208" width="316pt" height="208pt"><defs><clipPath id="_clipPath_zXlD3XXuVBPELPqFgtqT7BsIsiCMk2fa"><rect x="754.107" y="244" width="316" height="208"/></clipPath></defs><g clip-path="url(#_clipPath_zXlD3XXuVBPELPqFgtqT7BsIsiCMk2fa)"><rect x="754.107" y="244" width="316" height="208" transform="matrix(1,0,0,1,0,0)" fill="rgb(255,255,255)"/><g><rect x="754.107" y="244" width="28" height="28" transform="matrix(1,0,0,1,0,0)" fill="rgb(236,48,48)"/><rect x="754.107" y="292" width="28" height="20" transform="matrix(1,0,0,1,0,0)" fill="rgb(236,48,48)"/><rect x="754.107" y="332" width="28" height="20" transform="matrix(1,0,0,1,0,0)" fill="rgb(236,48,48)"/><rect x="754.107" y="372" width="28" height="20" transform="matrix(1,0,0,1,0,0)" fill="rgb(236,48,48)"/><rect x="754.107" y="412" width="28" height="20" transform="matrix(1,0,0,1,0,0)" fill="rgb(236,48,48)"/><rect x="1042.107" y="292" width="28" height="20" transform="matrix(1,0,0,1,0,0)" fill="rgb(236,48,48)"/><rect x="1042.107" y="332" width="28" height="20" transform="matrix(1,0,0,1,0,0)" fill="rgb(236,48,48)"/><rect x="1042.107" y="372" width="28" height="20" transform="matrix(1,0,0,1,0,0)" fill="rgb(236,48,48)"/><rect x="1042.107" y="412" width="28" height="20" transform="matrix(1,0,0,1,0,0)" fill="rgb(236,48,48)"/><rect x="1042.107" y="244" width="28" height="28" transform="matrix(1,0,0,1,0,0)" fill="rgb(236,48,48)"/><rect x="802" y="244" width="20" height="28" transform="matrix(1,0,0,1,0,0)" fill="rgb(236,48,48)"/><rect x="842" y="244" width="20" height="28" transform="matrix(1,0,0,1,0,0)" fill="rgb(236,48,48)"/><rect x="882.107" y="244" width="20" height="28" transform="matrix(1,0,0,1,0,0)" fill="rgb(236,48,48)"/><rect x="922.107" y="244" width="20" height="28" transform="matrix(1,0,0,1,0,0)" fill="rgb(236,48,48)"/><rect x="962" y="244" width="20" height="28" transform="matrix(1,0,0,1,0,0)" fill="rgb(236,48,48)"/><rect x="1002" y="244" width="20" height="28" transform="matrix(1,0,0,1,0,0)" fill="rgb(236,48,48)"/></g><rect x="762.107" y="252" width="300" height="200" transform="matrix(1,0,0,1,0,0)" fill="rgb(251,251,251)"/></g></svg>