<?xml version="1.0" encoding="UTF-8" standalone="no"?><!-- Generator: Gravit.io --><svg xmlns="http://www.w3.org/2000/svg" xmlns:xlink="http://www.w3.org/1999/xlink" style="isolation:isolate" viewBox="754.107 244 266.893 208" width="266.893pt" height="208pt"><defs><clipPath id="_clipPath_2C5bik7z42EDYzNKEJ7TJ38RBOdK16G1"><rect x="754.107" y="244" width="266.893" height="208"/></clipPath></defs><g clip-path="url(#_clipPath_2C5bik7z42EDYzNKEJ7TJ38RBOdK16G1)"><rect x="754.107" y="244" width="266.893" height="208" transform="matrix(1,0,0,1,0,0)" fill="rgb(255,255,255)"/><g><rect x="754.107" y="244" width="23.649" height="28" transform="matrix(1,0,0,1,0,0)" fill="rgb(236,48,48)"/><rect x="754.107" y="292" width="23.649" height="20" transform="matrix(1,0,0,1,0,0)" fill="rgb(236,48,48)"/><rect x="754.107" y="332" width="23.649" height="20" transform="matrix(1,0,0,1,0,0)" fill="rgb(236,48,48)"/><rect x="754.107" y="372" width="23.649" height="20" transform="matrix(1,0,0,1,0,0)" fill="rgb(236,48,48)"/><rect x="754.107" y="412" width="23.649" height="20" transform="matrix(1,0,0,1,0,0)" fill="rgb(236,48,48)"/><rect x="997.351" y="292" width="23.649" height="20" transform="matrix(1,0,0,1,0,0)" fill="rgb(236,48,48)"/><rect x="997.351" y="332" width="23.649" height="20" transform="matrix(1,0,0,1,0,0)" fill="rgb(236,48,48)"/><rect x="997.351" y="372" width="23.649" height="20" transform="matrix(1,0,0,1,0,0)" fill="rgb(236,48,48)"/><rect x="997.351" y="412" width="23.649" height="20" transform="matrix(1,0,0,1,0,0)" fill="rgb(236,48,48)"/><rect x="997.351" y="244" width="23.649" height="28" transform="matrix(1,0,0,1,0,0)" fill="rgb(236,48,48)"/><rect x="794.557" y="244" width="16.892" height="28" transform="matrix(1,0,0,1,0,0)" fill="rgb(236,48,48)"/><rect x="828.341" y="244" width="16.892" height="28" transform="matrix(1,0,0,1,0,0)" fill="rgb(236,48,48)"/><rect x="862.216" y="244" width="16.892" height="28" transform="matrix(1,0,0,1,0,0)" fill="rgb(236,48,48)"/><rect x="896" y="244" width="16.892" height="28" transform="matrix(1,0,0,1,0,0)" fill="rgb(236,48,48)"/><rect x="929.693" y="244" width="16.892" height="28" transform="matrix(1,0,0,1,0,0)" fill="rgb(236,48,48)"/><rect x="963.477" y="244" width="16.892" height="28" transform="matrix(1,0,0,1,0,0)" fill="rgb(236,48,48)"/></g><rect x="765.432" y="259" width="244.243" height="193" transform="matrix(1,0,0,1,0,0)" fill="rgb(251,251,251)"/></g></svg>