<svg id="icons" enable-background="new 0 0 64 64" height="512" viewBox="0 0 64 64" width="512" xmlns="http://www.w3.org/2000/svg"><g><path d="m8.991 17.5h-4c-.553 0-1 .447-1 1v4c0 .553.447 1 1 1h4c.553 0 1-.447 1-1v-4c0-.553-.447-1-1-1zm-1 4h-2v-2h2z"/><path d="m17.991 17.5h-4c-.553 0-1 .447-1 1v4c0 .553.447 1 1 1h4c.553 0 1-.447 1-1v-4c0-.553-.447-1-1-1zm-1 4h-2v-2h2z"/><path d="m26.991 17.5h-4c-.553 0-1 .447-1 1v4c0 .553.447 1 1 1h4c.553 0 1-.447 1-1v-4c0-.553-.447-1-1-1zm-1 4h-2v-2h2z"/><path d="m35.991 17.5h-4c-.553 0-1 .447-1 1v4c0 .553.447 1 1 1h4c.553 0 1-.447 1-1v-4c0-.553-.447-1-1-1zm-1 4h-2v-2h2z"/><path d="m8.991 25.5h-4c-.553 0-1 .447-1 1v4c0 .553.447 1 1 1h4c.553 0 1-.447 1-1v-4c0-.553-.447-1-1-1zm-1 4h-2v-2h2z"/><path d="m17.991 25.5h-4c-.553 0-1 .447-1 1v4c0 .553.447 1 1 1h4c.553 0 1-.447 1-1v-4c0-.553-.447-1-1-1zm-1 4h-2v-2h2z"/><path d="m26.991 25.5h-4c-.553 0-1 .447-1 1v4c0 .553.447 1 1 1h4c.553 0 1-.447 1-1v-4c0-.553-.447-1-1-1zm-1 4h-2v-2h2z"/><path d="m8.991 33.5h-4c-.553 0-1 .447-1 1v4c0 .553.447 1 1 1h4c.553 0 1-.447 1-1v-4c0-.553-.447-1-1-1zm-1 4h-2v-2h2z"/><path d="m17.991 33.5h-4c-.553 0-1 .447-1 1v4c0 .553.447 1 1 1h4c.553 0 1-.447 1-1v-4c0-.553-.447-1-1-1zm-1 4h-2v-2h2z"/><path d="m26.991 33.5h-4c-.553 0-1 .447-1 1v4c0 .553.447 1 1 1h4c.553 0 1-.447 1-1v-4c0-.553-.447-1-1-1zm-1 4h-2v-2h2z"/><path d="m8.991 41.5h-4c-.553 0-1 .447-1 1v4c0 .553.447 1 1 1h4c.553 0 1-.447 1-1v-4c0-.553-.447-1-1-1zm-1 4h-2v-2h2z"/><path d="m17.991 41.5h-4c-.553 0-1 .447-1 1v4c0 .553.447 1 1 1h4c.553 0 1-.447 1-1v-4c0-.553-.447-1-1-1zm-1 4h-2v-2h2z"/><path d="m26.991 41.5h-4c-.553 0-1 .447-1 1v4c0 .553.447 1 1 1h4c.553 0 1-.447 1-1v-4c0-.553-.447-1-1-1zm-1 4h-2v-2h2z"/><path d="m35.991 25.5h-4c-.553 0-1 .447-1 1v4c0 .553.447 1 1 1h4c.553 0 1-.447 1-1v-4c0-.553-.447-1-1-1zm-1 4h-2v-2h2z"/><path d="m44.991 25.5h-4c-.553 0-1 .447-1 1v4c0 .553.447 1 1 1h4c.553 0 1-.447 1-1v-4c0-.553-.447-1-1-1zm-1 4h-2v-2h2z"/><path d="m44.991 17.5h-4c-.553 0-1 .447-1 1v4c0 .553.447 1 1 1h4c.553 0 1-.447 1-1v-4c0-.553-.447-1-1-1zm-1 4h-2v-2h2z"/><path d="m60.516 57.107c2.178-2.604 3.493-5.954 3.493-9.606 0-2.946-.866-5.689-2.341-8.011-.005-.008-.009-.016-.015-.023-2.025-3.176-5.208-5.532-8.954-6.485-.004-.002-.008-.002-.012-.003-.866-.22-1.761-.364-2.68-.425l-.016-24.055v-.001c-.001-1.653-1.347-2.998-3-2.998h-3v-1.5c0-1.379-1.121-2.5-2.5-2.5s-2.5 1.121-2.5 2.5v1.5h-6v-1.5c0-1.379-1.121-2.5-2.5-2.5s-2.5 1.121-2.5 2.5v1.5h-6v-1.5c0-1.379-1.121-2.5-2.5-2.5s-2.5 1.121-2.5 2.5v1.5h-6v-1.5c0-1.379-1.121-2.5-2.5-2.5s-2.5 1.121-2.5 2.5v1.5h-3c-1.654 0-3 1.346-3 3v48.033c0 .553.447 1 1 1l36.883-.018c1.497 1.663 3.351 2.995 5.451 3.858.006.002.012.005.019.007 1.749.717 3.66 1.119 5.665 1.119 4.612 0 8.742-2.096 11.496-5.382.003-.003.007-.006.011-.01zm-.767-6.18 2.194-2.138c-.185 1.872-.776 3.622-1.672 5.177zm-1.179-12.201-2.919-.426-1.303-2.637c1.611.73 3.042 1.777 4.222 3.063zm-24.412 6.774h-1.149v-2h1.559c-.181.65-.318 1.317-.41 2zm.732 7.016-32.899.002v-1.018h32.575c.096.344.205.682.324 1.016zm-32.899 2.002 33.769-.002c.183.344.385.674.592 1.001l-34.36.017v-1.016zm35.755-.552c-.896-1.554-1.486-3.304-1.672-5.175l2.194 2.136zm7.58-20.987c-.002 0-.004.001-.007.001-3.377.859-6.294 2.86-8.321 5.574.001-.019.011-.035.011-.055v-4c0-.553-.447-1-1-1h-4c-.553 0-1 .447-1 1v4c0 .553.447 1 1 1h4c.136 0 .264-.028.382-.077-.009.014-.017.028-.025.042-.008.011-.013.022-.021.033-.404.638-.768 1.304-1.074 2.002h-3.262c-.553 0-1 .447-1 1v4c0 .553.447 1 1 1h2v.001c0 .68.062 1.344.149 1.999h-32.167v-34h46.005l.012 17.054c-.919.061-1.815.206-2.682.426zm-1.657 2.684-1.303 2.637-2.919.426c1.181-1.286 2.612-2.333 4.222-3.063zm-8.66-.163v2h-2v-2zm5.982-31.5c0-.275.225-.5.5-.5s.5.225.5.5v5c0 .275-.225.5-.5.5s-.5-.225-.5-.5zm-11 0c0-.275.225-.5.5-.5s.5.225.5.5v5c0 .275-.225.5-.5.5s-.5-.225-.5-.5zm-11 0c0-.275.225-.5.5-.5s.5.225.5.5v5c0 .275-.225.5-.5.5s-.5-.225-.5-.5zm-11 0c0-.275.225-.5.5-.5s.5.225.5.5v5c0 .275-.225.5-.5.5s-.5-.225-.5-.5zm-5 3.5h3v1.5c0 1.379 1.121 2.5 2.5 2.5s2.5-1.121 2.5-2.5v-1.5h6v1.5c0 1.379 1.121 2.5 2.5 2.5s2.5-1.121 2.5-2.5v-1.5h6v1.5c0 1.379 1.121 2.5 2.5 2.5s2.5-1.121 2.5-2.5v-1.5h6v1.5c0 1.379 1.121 2.5 2.5 2.5s2.5-1.121 2.5-2.5v-1.5h3c.552 0 1 .448 1 1v.001l.004 4.999h-46.004v-5c0-.552.448-1 1-1zm43.238 52.693 2.78-1.46 2.78 1.46c-.897.196-1.825.307-2.78.307s-1.884-.11-2.78-.307zm8.181-.882-4.937-2.593c-.291-.151-.639-.153-.93 0l-4.937 2.592c-1.611-.739-3.041-1.798-4.218-3.096l.938-5.468c.056-.324-.052-.655-.288-.886l-3.94-3.837c.207-1.818.795-3.521 1.676-5.033l5.399-.787c.325-.047.606-.252.752-.547l2.407-4.874c.862-.181 1.756-.279 2.671-.279.001 0 .003.001.004.001h.001s.002-.001.004-.001c.915.001 1.808.099 2.67.279l2.407 4.874c.146.295.427.5.752.547l5.399.787c.881 1.513 1.469 3.214 1.676 5.032l-3.94 3.838c-.236.23-.344.562-.288.886l.938 5.468c-1.175 1.298-2.605 2.356-4.216 3.097z"/><path d="m49.591 40.715c-.352-.256-.824-.256-1.176 0l-5.785 4.203c-.351.254-.497.706-.363 1.118l2.209 6.797c.134.411.518.69.951.69h7.151c.433 0 .817-.278.951-.69l2.211-6.797c.134-.412-.013-.864-.363-1.118zm2.261 10.808h-5.698l-1.76-5.415 4.609-3.349 4.61 3.349z"/></g></svg>