<?xml version="1.0" encoding="UTF-8" standalone="no"?><!-- Generator: Gravit.io --><svg xmlns="http://www.w3.org/2000/svg" xmlns:xlink="http://www.w3.org/1999/xlink" style="isolation:isolate" viewBox="24.915 51.994 482.085 618.006" width="482.085pt" height="618.006pt"><defs><clipPath id="_clipPath_GeSgBLbgzH84JCKp6JCmMw7ne0yOvoTK"><rect x="24.915" y="51.994" width="482.085" height="618.006"/></clipPath></defs><g clip-path="url(#_clipPath_GeSgBLbgzH84JCKp6JCmMw7ne0yOvoTK)"><path d="M 32.688 150.043 L 290.977 52.766 C 297.175 50.431 304.102 53.568 306.436 59.766 L 447.771 435.034 C 450.105 441.232 446.968 448.159 440.77 450.493 L 182.481 547.771 C 176.283 550.105 169.356 546.968 167.022 540.77 L 25.687 165.503 C 23.353 159.305 26.49 152.378 32.688 150.043 Z" style="stroke:none;fill:#DD0F0F;stroke-miterlimit:10;"/><defs><filter id="X4VePvs2u9Pwe5dK6PHPemYux0o0lrmZ" x="-200%" y="-200%" width="400%" height="400%" filterUnits="objectBoundingBox" color-interpolation-filters="sRGB"><feGaussianBlur xmlns="http://www.w3.org/2000/svg" in="SourceGraphic" stdDeviation="21.46804531419514"/><feOffset xmlns="http://www.w3.org/2000/svg" dx="-10" dy="-10" result="pf_100_offsetBlur"/><feFlood xmlns="http://www.w3.org/2000/svg" flood-color="#000000" flood-opacity="0.3"/><feComposite xmlns="http://www.w3.org/2000/svg" in2="pf_100_offsetBlur" operator="in" result="pf_100_dropShadow"/><feBlend xmlns="http://www.w3.org/2000/svg" in="SourceGraphic" in2="pf_100_dropShadow" mode="normal"/></filter></defs><g filter="url(#X4VePvs2u9Pwe5dK6PHPemYux0o0lrmZ)"><path d="M 164 190 L 440 190 C 446.623 190 452 195.377 452 202 L 452 603 C 452 609.623 446.623 615 440 615 L 164 615 C 157.377 615 152 609.623 152 603 L 152 202 C 152 195.377 157.377 190 164 190 Z" style="stroke:none;fill:#DD0F0F;stroke-miterlimit:10;"/></g></g></svg>