<svg height="512" viewBox="0 0 512 512" width="512" xmlns="http://www.w3.org/2000/svg"><g id="solid"><path d="m147.056 96h-76.674l-8.83 16h77.504z"/><circle cx="304" cy="232" r="40"/><path d="m211.056 96h-46.112l-8 16h46.112z"/><path d="m422.854 215.45a105.37 105.37 0 0 0 1.146-15.45 104 104 0 0 0 -104-104h-91.056l-8 16h83.056a120.179 120.179 0 0 1 118.854 103.45z"/><path d="m304 128h-248v80h137.143a8 8 0 0 1 7.919 9.133 105.32 105.32 0 0 0 -1.062 14.867 104 104 0 1 0 104-104zm0 160a56 56 0 1 1 56-56 56.063 56.063 0 0 1 -56 56z"/><path d="m16 240h40v16h-40z"/><path d="m72 240h16v16h-16z"/><path d="m479.583 200.939a162.112 162.112 0 0 0 -15.683-51.033 16.2 16.2 0 0 0 3.424-2.6 16 16 0 0 0 -11.324-27.306h-46.579a120.141 120.141 0 0 1 20.571 32h17.064l2.508 5.017a146.113 146.113 0 0 1 14.236 46.583c.011.1.024.2.038.3a146.589 146.589 0 0 1 -22.052 97.66 162.418 162.418 0 0 0 -25.786 87.76v10.68a40 40 0 0 0 80 0v-96.63a327.17 327.17 0 0 0 -16.417-102.431zm.417 199.061a24 24 0 0 1 -48 0v-10.68a146.438 146.438 0 0 1 23.24-79.115 162.419 162.419 0 0 0 21.59-51.233 311.991 311.991 0 0 1 3.17 44.4z"/></g></svg>